<?xml version="1.0" encoding="UTF-8" standalone="no"?>
<svg
   xmlns:dc="http://purl.org/dc/elements/1.1/"
   xmlns:cc="http://creativecommons.org/ns#"
   xmlns:rdf="http://www.w3.org/1999/02/22-rdf-syntax-ns#"
   xmlns:svg="http://www.w3.org/2000/svg"
   xmlns="http://www.w3.org/2000/svg"
   id="svg8"
   version="1.1"
   viewBox="0 0 55 55"
   height="55mm"
   width="55mm">
  <defs
     id="defs2" />
  <metadata
     id="metadata5">
    <rdf:RDF>
      <cc:Work
         rdf:about="">
        <dc:format>image/svg+xml</dc:format>
        <dc:type
           rdf:resource="http://purl.org/dc/dcmitype/StillImage" />
        <dc:title></dc:title>
      </cc:Work>
    </rdf:RDF>
  </metadata>
  <g
     transform="translate(-75.201316,-76.159835)"
     id="layer1">
    <path
       d="m 127.95379,103.70081 a 25.659184,26.115347 0 0 1 -20.58286,25.59918 25.659184,26.115347 0 0 1 -28.726945,-15.47028 25.659184,26.115347 0 0 1 9.216404,-31.720351 25.659184,26.115347 0 0 1 32.373621,2.919416"
       id="path815"
       style="fill:none;fill-opacity:0.62352941;stroke:#000000;stroke-width:2.86500001;stroke-miterlimit:4;stroke-dasharray:none;stroke-opacity:1;paint-order:stroke markers fill" />
    <path
       d="m -138.93318,25.01066 a 7.1184325,5.3642879 0 0 1 -6.16475,-2.682144 7.1184325,5.3642879 0 0 1 0,-5.364288 7.1184325,5.3642879 0 0 1 6.16475,-2.682144"
       transform="matrix(-0.73307967,-0.68014278,0.83779773,-0.54598074,0,0)"
       id="path819"
       style="fill:none;fill-opacity:0.62352941;stroke:#000000;stroke-width:2.48333526;stroke-miterlimit:4;stroke-dasharray:none;stroke-opacity:1;paint-order:stroke markers fill" />
    <path
       transform="matrix(-0.06233918,-0.73761429,0.66087516,-0.0558536,31.719554,217.09807)"
       d="m 164.67494,132.09697 -21.03585,-14.31241 22.91284,-11.06137 z"
       id="path825"
       style="fill:#ffff00;fill-opacity:0.62352941;stroke:#000000;stroke-width:2.86500001;stroke-miterlimit:4;stroke-dasharray:none;stroke-opacity:1;paint-order:stroke markers fill" />
    <path
       transform="matrix(0.07049698,0.73687935,-0.6602167,0.06316269,168.24331,-8.7151319)"
       d="m 164.67494,132.09697 -21.03585,-14.31241 22.91284,-11.06137 z"
       id="path825-3"
       style="fill:#ffcb00;fill-opacity:0.62352941;stroke:#000000;stroke-width:2.86500001;stroke-miterlimit:4;stroke-dasharray:none;stroke-opacity:1;paint-order:stroke markers fill" />
  </g>
</svg>
